<?xml version="1.0" standalone="no"?>
<!DOCTYPE svg PUBLIC "-//W3C//DTD SVG 1.1//EN" "http://www.w3.org/Graphics/SVG/1.1/DTD/svg11.dtd" >
<svg xmlns="http://www.w3.org/2000/svg">
<metadata>Generated by IcoMoon</metadata>
<defs>
<font id="icomoon" horiz-adv-x="1024">
<font-face units-per-em="1024" ascent="960" descent="-64" />
<missing-glyph horiz-adv-x="1024" />
<glyph unicode="&#x20;" horiz-adv-x="512" d="" />
<glyph unicode="&#xe900;" glyph-name="add-person" d="M649.437 573.364v44.522h263.259v-44.522zM803.327 464.416l-44.522-0.026-0.153 262.444 44.522 0.026zM605.876 637.714l-0.13-1.908c-0.81-7.265-3.757-24.12-8.265-48.177-2.635-14.063-5.165-27.187-6.818-35.632-14.321-73.421-64.561-126.257-132.089-126.257-67.926 0-118.299 53.565-130.46 126.341-1.666 8.719-4.154 22.152-6.646 36.438-0.526 3.022-0.526 3.022-1.048 6.068-3.797 22.212-5.864 36.607-5.838 42.598-3.87 79.094 64.43 144.729 145.637 144.729h4.936c79.412 0 142.694-65.512 140.72-144.199zM465.155 737.391h-4.936c-56.62 0-103.749-45.29-101.142-99.119 0-3.349 2.023-17.437 5.228-36.183 0.509-2.966 0.509-2.966 1.022-5.919 2.444-14.009 4.892-27.23 6.608-36.241 8.96-53.594 42.884-89.668 86.638-89.668 43.637 0 77.792 35.92 88.393 90.273 6.138 31.358 13.002 67.947 14.42 79.275 0.802 53.328-42.273 97.582-96.232 97.582zM739.715 158.609l-3.899 89.48c-2.238 34.577-31.94 58.742-79.417 67.943l-196.169 25.859-193.554-25.706c-41.34-7.359-74.375-34.165-78.795-63.592l-7.856-93.985h559.69zM131.627 114.087l2.016 24.115 10.037 119.518c7.754 52.178 56.685 91.882 116.163 102.449l197.444 26.244 5.842 0.003 200.398-26.457c66.534-12.838 112.939-50.591 116.744-109.463l5.949-136.41h-654.593z" />
<glyph unicode="&#xe901;" glyph-name="angle-left" d="M769.294-6.248l-30.17-30.17-484.418 484.418 484.418 484.418 30.17-30.17-454.248-454.248z" />
<glyph unicode="&#xe902;" glyph-name="angle-right" d="M254.706 902.248l30.17 30.17 484.418-484.418-484.418-484.418-30.17 30.17 454.248 454.248z" />
<glyph unicode="&#xe903;" glyph-name="avatar" d="M512 91.826c-196.709 0-356.174 159.464-356.174 356.174s159.464 356.174 356.174 356.174c196.709 0 356.174-159.464 356.174-356.174s-159.464-356.174-356.174-356.174zM512 136.348c172.121 0 311.652 139.531 311.652 311.652s-139.531 311.652-311.652 311.652c-172.121 0-311.652-139.531-311.652-311.652s139.531-311.652 311.652-311.652zM630.712 556.117c-0.502-2.753-0.502-2.753-1.008-5.481-2.207-11.863-4.409-22.964-5.752-29.451-11.017-64.266-53.198-109.963-111.952-109.963-58.347 0-100.741 46.431-111.818 109.251-1.477 7.2-3.679 18.3-5.886 30.163-0.506 2.728-0.506 2.728-1.008 5.481-3.359 18.486-5.175 30.531-5.175 37.063 0 2.178 0 2.178 0.008 4.941 1.778 67.567 57.112 120.71 123.879 118.946h2.904c0.726 0 0.726 0 2.037-0.008 67.488-1.776 120.585-56.982 118.944-124.226-0.062-6.607-1.873-18.552-5.173-36.716zM591.365 593.18c1.13 43.235-32.487 78.238-75.009 79.365h-1.452c-1.452 0-1.452 0-3.489 0.008-42.649 1.122-77.653-32.495-78.779-75.017v-4.355c0-2.616 1.731-14.098 4.457-29.104 0.484-2.655 0.484-2.655 0.974-5.296 2.148-11.547 4.302-22.405 5.844-29.965 7.787-44.125 34.216-73.071 68.089-73.071 34.385 0 60.393 28.175 68.205 73.675 1.427 6.955 3.58 17.813 5.729 29.36 0.49 2.642 0.49 2.642 0.974 5.296 2.726 15.006 4.457 26.488 4.457 29.104zM349.154 301.591c-37.831-9.763-61.699-36.11-61.699-68.457v-10.163h-44.522v10.163c0 54.196 38.813 97.042 96.692 111.916l168.408 30.488 8.079-0.027 172.143-32.495c56.006-16.802 92.809-56.995 92.809-111.333v-10.163h-44.522v10.163c0 32.598-22.43 57.094-58.798 68.134l-165.827 31.181-162.765-29.407z" />
<glyph unicode="&#xe904;" glyph-name="bell" d="M823.652 237.974v38.134c0 34.541-15.238 68.462-42.562 92.453l-65.618 63.917c-33.393 34.329-52.416 78.792-52.416 125.471v75.881c0 82.036-67.817 148.083-152.646 148.083s-152.646-66.048-152.646-148.083v-74.332c0-48.083-18.513-92.464-52.841-125.897l-64.767-63.066c-25.505-26.219-39.808-59.651-39.808-94.427v-38.134h623.304zM868.174 276.107v-82.656h-712.348v82.656c0 46.679 19.022 91.142 52.841 125.897l65.193 63.492c25.675 25.006 39.382 57.866 39.382 94.002v74.332c0 106.891 88.009 192.605 197.168 192.605s197.168-85.713 197.168-192.605v-75.881c0-34.776 14.303-68.208 39.382-94.002l64.334-62.699c36.152-31.688 56.879-77.829 56.879-125.141zM394.335 215.713h44.522v-30.972c0-38.675 32.835-70.654 73.143-70.654s73.143 31.979 73.143 70.654v30.972h44.522v-30.972c0-63.531-53.028-115.176-117.665-115.176s-117.665 51.645-117.665 115.176v30.972z" />
<glyph unicode="&#xe905;" glyph-name="building" d="M788.503 801.27c0 12.294 9.967 22.261 22.261 22.261s22.261-9.967 22.261-22.261v-627.176c0-69.829-57.461-126.79-127.707-126.79h-386.636c-70.246 0-127.707 56.961-127.707 126.79v627.176c0 12.294 9.967 22.261 22.261 22.261s22.261-9.967 22.261-22.261v-627.176c0-45.153 37.441-82.268 83.185-82.268h386.636c45.744 0 83.185 37.115 83.185 82.268v627.176zM499.112 579.629h25.776v94.851h-25.776v-94.851zM569.41 719.002v-183.894h-114.819v183.894h114.819zM499.112 335.728h25.776v94.851h-25.776v-94.851zM569.41 475.1v-183.894h-114.819v183.894h114.819zM340.943 579.629h25.776v94.851h-25.776v-94.851zM411.24 719.002v-183.894h-114.819v183.894h114.819zM657.281 579.629h25.776v94.851h-25.776v-94.851zM727.579 719.002v-183.894h-114.819v183.894h114.819zM340.943 335.728h25.776v94.851h-25.776v-94.851zM411.24 475.1v-183.894h-114.819v183.894h114.819zM657.281 335.728h25.776v94.851h-25.776v-94.851zM727.579 475.1v-183.894h-114.819v183.894h114.819zM463.963 69.565c0-12.294-9.967-22.261-22.261-22.261s-22.261 9.967-22.261 22.261v161.633h185.117v-161.633c0-12.294-9.967-22.261-22.261-22.261s-22.261 9.967-22.261 22.261v117.112h-96.073v-117.112zM200.348 848.696v-25.164h623.304v25.164h-623.304zM868.174 893.217v-114.208h-712.348v114.208h712.348z" />
<glyph unicode="&#xe906;" glyph-name="chat" d="M634.409 223.456h124.397c60.102 0 109.369 49.267 109.369 109.369v471.35h-712.348v-471.35c0-60.102 49.267-109.369 109.369-109.369h124.397l122.409-122.409 122.409 122.409zM371.15 178.934h-105.955c-84.691 0-153.89 69.2-153.89 153.89v515.871h801.391v-515.871c0-84.691-69.2-153.89-153.89-153.89h-105.955l-140.85-140.85-140.85 140.85zM298.102 639.637v44.522h427.796v-44.522zM298.102 508.008v44.522h427.796v-44.522zM298.102 376.378v44.522h329.074v-44.522z" />
<glyph unicode="&#xe907;" glyph-name="clock" d="M496.099 25.043c-187.798 0-340.273 148.498-340.273 331.977s152.475 331.977 340.273 331.977c187.798 0 340.273-148.498 340.273-331.977s-152.475-331.977-340.273-331.977zM496.099 69.565c163.469 0 295.752 128.832 295.752 287.456s-132.283 287.456-295.752 287.456c-163.469 0-295.752-128.832-295.752-287.456s132.283-287.456 295.752-287.456zM816.83 651.599l-26.054 25.375-36.769-24.381 37.789-36.803 25.034 35.81zM683.41 659.201l112.697 74.728 78.89-76.832-76.73-109.757-114.857 111.861zM518.36 666.737h-44.522v92.915h44.522zM459.528 360.118l170.137 136.275 17.491-17.034-139.925-164.15c-11.13-13.937-30.211-15.486-44.522-4.646-1.59 1.549-1.59 1.549-3.18 3.097-12.72 12.389-12.72 30.972-1.59 43.36 0 1.549 1.59 1.549 1.59 3.097zM400.851 737.392l-0.312 44.521 190.807 1.336 0.312-44.521z" />
<glyph unicode="&#xe908;" glyph-name="close" d="M12.497 887.163l60.34 60.34 938.667-938.667-60.34-60.34zM72.837-51.503l-60.34 60.34 938.667 938.667 60.34-60.34z" />
<glyph unicode="&#xe909;" glyph-name="control" d="M795.584 767.395h-44.522v13.627h44.522zM751.062 618.667h44.522v-549.101h-44.522zM773.323 596.406c-52.495 0-94.851 43.296-94.851 96.464s42.355 96.464 94.851 96.464c52.495 0 94.851-43.296 94.851-96.464s-42.355-96.464-94.851-96.464zM773.323 640.928c27.685 0 50.329 23.147 50.329 51.942s-22.644 51.942-50.329 51.942c-27.685 0-50.329-23.147-50.329-51.942s22.644-51.942 50.329-51.942zM489.739 781.913h44.522v-386.003h-44.522zM489.739 247.652h44.522v-178.087h-44.522zM512 225.391c-52.495 0-94.851 43.296-94.851 96.464s42.355 96.464 94.851 96.464c52.495 0 94.851-43.296 94.851-96.464s-42.355-96.464-94.851-96.464zM512 269.913c27.685 0 50.329 23.147 50.329 51.942s-22.644 51.942-50.329 51.942c-27.685 0-50.329-23.147-50.329-51.942s22.644-51.942 50.329-51.942zM228.416 781.913h44.522v-15.139h-44.522zM228.416 618.519h44.522v-548.954h-44.522zM250.677 596.406c-52.495 0-94.851 43.296-94.851 96.464s42.355 96.464 94.851 96.464c52.495 0 94.851-43.296 94.851-96.464s-42.355-96.464-94.851-96.464zM250.677 640.928c27.685 0 50.329 23.147 50.329 51.942s-22.644 51.942-50.329 51.942c-27.685 0-50.329-23.147-50.329-51.942s22.644-51.942 50.329-51.942z" />
<glyph unicode="&#xe90a;" glyph-name="crown" d="M215.645 503.659l48.049-183.773c10.777-42.666 48.283-72.311 91.076-72.234h314.459c42.793-0.077 80.299 29.568 91.122 72.414l48.003 183.593-38.936-28.934c-30.347-22.802-68.784-31.422-105.75-23.688-36.908 7.722-68.836 31.012-87.924 64.075l-63.782 110.907-63.858-110.617c-19.012-33.034-50.879-56.358-87.746-64.147-36.926-7.801-75.353 0.727-105.684 23.399l-39.030 29.005zM354.81 203.131c-63.321-0.114-118.541 43.531-134.236 105.673l-80.046 306.146 140.752-104.598c20.142-15.056 45.507-20.685 69.876-15.537 24.427 5.161 45.636 20.685 58.376 42.821l102.504 177.562 102.285-177.858c12.763-22.108 34.012-37.608 58.466-42.725 24.395-5.104 49.768 0.586 69.982 15.774l140.702 104.561-80-305.967c-15.74-62.315-70.949-105.957-134.261-105.853h-314.4z" />
<glyph unicode="&#xe90b;" glyph-name="danger" d="M512 814.303l-435.415-752.081h870.831l-435.415 752.081zM1015.251 23.111h-1006.503l503.251 869.252 503.251-869.252zM492.444 563.81h39.111v-270.222h-39.111zM554.667 197.079c0-23.564-19.103-42.667-42.667-42.667s-42.667 19.103-42.667 42.667c0 23.564 19.103 42.667 42.667 42.667s42.667-19.103 42.667-42.667z" />
<glyph unicode="&#xe90c;" glyph-name="dots-v" d="M512 639.637c-61.095 0-111.304 46.389-111.304 104.529s50.209 104.529 111.304 104.529c61.095 0 111.304-46.389 111.304-104.529s-50.209-104.529-111.304-104.529zM512 684.159c37.259 0 66.783 27.277 66.783 60.008s-29.523 60.008-66.783 60.008c-37.259 0-66.783-27.277-66.783-60.008s29.523-60.008 66.783-60.008zM512 343.471c-61.095 0-111.304 46.389-111.304 104.529s50.209 104.529 111.304 104.529c61.095 0 111.304-46.389 111.304-104.529s-50.209-104.529-111.304-104.529zM512 387.992c37.259 0 66.783 27.277 66.783 60.008s-29.523 60.008-66.783 60.008c-37.259 0-66.783-27.277-66.783-60.008s29.523-60.008 66.783-60.008zM512 47.304c-61.095 0-111.304 46.389-111.304 104.529s50.209 104.529 111.304 104.529c61.095 0 111.304-46.389 111.304-104.529s-50.209-104.529-111.304-104.529zM512 91.826c37.259 0 66.783 27.277 66.783 60.008s-29.523 60.008-66.783 60.008c-37.259 0-66.783-27.277-66.783-60.008s29.523-60.008 66.783-60.008z" />
<glyph unicode="&#xe90d;" glyph-name="dots" d="M228.174 341.333c-55.718 0-100.174 48.117-100.174 106.667s44.456 106.667 100.174 106.667c55.718 0 100.174-48.117 100.174-106.667s-44.456-106.667-100.174-106.667zM228.174 384c31.367 0 57.507 28.293 57.507 64s-26.14 64-57.507 64c-31.367 0-57.507-28.293-57.507-64s26.14-64 57.507-64zM512 341.333c-55.718 0-100.174 48.117-100.174 106.667s44.456 106.667 100.174 106.667c55.718 0 100.174-48.117 100.174-106.667s-44.456-106.667-100.174-106.667zM512 384c31.367 0 57.507 28.293 57.507 64s-26.14 64-57.507 64c-31.367 0-57.507-28.293-57.507-64s26.14-64 57.507-64zM795.826 341.333c-55.718 0-100.174 48.117-100.174 106.667s44.456 106.667 100.174 106.667c55.718 0 100.174-48.117 100.174-106.667s-44.456-106.667-100.174-106.667zM795.826 384c31.367 0 57.507 28.293 57.507 64s-26.14 64-57.507 64c-31.367 0-57.507-28.293-57.507-64s26.14-64 57.507-64z" />
<glyph unicode="&#xe90e;" glyph-name="download-document" d="M239.062 809.981v-723.962h358.053c103.388 0 187.823 81.611 187.823 180.991v542.972h-545.875zM817.845 842.888v-575.879c0-117.809-99.414-213.898-220.73-213.898h-390.96v789.777h611.69zM496.884 579.725l32.907-0.191-1.337-230.352-32.907 0.191zM512 372.161l107.726 104.123 22.87-23.661-130.596-126.228-130.596 126.228 22.87 23.661z" />
<glyph unicode="&#xe90f;" glyph-name="eye" d="M830.443 466.909c-22.28 24.276-47.614 48.568-75.468 71.202-78.589 63.86-161.089 101.89-242.976 101.89s-164.386-38.030-242.976-101.89c-27.854-22.633-53.188-46.925-75.468-71.202-6.597-7.189-12.199-13.56-16.742-18.909 4.544-5.349 10.145-11.72 16.742-18.909 22.28-24.276 47.614-48.568 75.468-71.202 78.589-63.86 161.089-101.89 242.976-101.89s164.386 38.030 242.976 101.89c27.854 22.633 53.188 46.925 75.468 71.202 6.597 7.189 12.199 13.56 16.742 18.909-4.544 5.349-10.145 11.72-16.742 18.909zM883.726 425.224c-6.264-7.562-13.566-15.959-21.847-24.982-23.608-25.724-50.419-51.432-79.996-75.465-85.497-69.473-176.545-111.444-269.882-111.444s-184.385 41.97-269.882 111.444c-29.577 24.033-56.388 49.741-79.996 75.465-8.281 9.024-15.583 17.42-21.847 24.982-3.815 4.606-6.473 7.959-7.915 9.853l-9.838 12.922 9.838 12.922c1.442 1.894 4.1 5.247 7.915 9.853 6.264 7.562 13.566 15.959 21.847 24.982 23.608 25.724 50.419 51.432 79.996 75.465 85.497 69.473 176.545 111.444 269.882 111.444s184.385-41.97 269.882-111.444c29.577-24.033 56.388-49.741 79.996-75.465 8.281-9.024 15.583-17.42 21.847-24.982 3.815-4.606 6.473-7.959 7.915-9.853l9.838-12.922-9.838-12.922c-1.442-1.894-4.1-5.247-7.915-9.853zM512 320c-72.581 0-131.71 57.141-131.71 128s59.129 128 131.71 128c72.581 0 131.71-57.141 131.71-128s-59.129-128-131.71-128zM512 362.667c49.337 0 89.043 38.371 89.043 85.333s-39.706 85.333-89.043 85.333c-49.337 0-89.043-38.371-89.043-85.333s39.706-85.333 89.043-85.333z" />
<glyph unicode="&#xe910;" glyph-name="folder" d="M258.42 715.13v-151.374h-44.522v195.896h266.44l58.072-86.817h271.693v-109.078h-44.522v64.557h-250.954l-58.072 86.817zM201.68 541.496l16.030-275.629c3.496-47.626 44.563-84.997 93.943-84.997h396.34c48.923 0 89.239 37.009 93.941 84.981l20.041 275.645h-620.295zM707.992 136.348h-396.34c-72.503 0-133.126 55.167-138.367 126.596l-18.792 323.073h715.358l-1.736-23.875-21.824-300.074c-6.971-71.211-66.349-125.72-138.299-125.72z" />
<glyph unicode="&#xe911;" glyph-name="glasses" d="M337.92 298.667c-83.795 0-151.893 66.763-151.893 149.333s68.098 149.333 151.893 149.333c83.795 0 151.893-66.763 151.893-149.333s-68.098-149.333-151.893-149.333zM337.92 341.333c60.418 0 109.227 47.852 109.227 106.667s-48.809 106.667-109.227 106.667c-60.418 0-109.227-47.852-109.227-106.667s48.809-106.667 109.227-106.667zM686.080 298.667c-83.795 0-151.893 66.763-151.893 149.333s68.098 149.333 151.893 149.333c83.795 0 151.893-66.763 151.893-149.333s-68.098-149.333-151.893-149.333zM686.080 341.333c60.418 0 109.227 47.852 109.227 106.667s-48.809 106.667-109.227 106.667c-60.418 0-109.227-47.852-109.227-106.667s48.809-106.667 109.227-106.667zM587.867 516.587l-35.68-23.396c-8.537 13.019-22.709 19.84-41.491 18.849-16.173 0.991-30.345-5.83-38.882-18.849l-35.68 23.396c17.080 26.047 45.97 39.952 74.562 38.040 31.202 1.912 60.092-11.993 77.171-38.040zM816.64 426.667v42.667h58.027v-42.667zM149.333 426.667v42.667h58.027v-42.667z" />
<glyph unicode="&#xe912;" glyph-name="heart" d="M847.48 737.994c41.767-42.346 65.216-99.757 65.216-159.601 0-113.454-55.239-214.184-165.194-316.076-70.089-61.58-144.867-117.442-223.636-167.065l-11.714-7.38-11.799 7.244c-79.51 48.815-154.498 104.834-224.485 167.776-104.624 99.282-164.564 205.719-164.564 315.545 0.205 103.779 70.171 194.139 169.724 218.954 87.5 21.811 177.939-11.978 230.941-82.834 41.66 55.849 107.19 89.606 177.72 89.617 59.196 0.047 115.964-23.772 157.791-66.179zM717.677 295.367c101.214 93.802 150.497 183.671 150.497 283.026 0 48.167-18.859 94.339-52.392 128.337-33.471 33.935-78.817 52.961-126.064 52.922-66.295-0.009-127.14-37.395-157.932-97.129l-19.742-38.298-19.812 38.262c-38.192 73.759-120.874 111.535-200.435 91.703-79.654-19.855-135.806-92.373-135.971-175.798 0-95.492 54.088-191.537 150.25-282.8 64.094-57.632 132.941-109.562 205.78-155.22 72.478 46.485 141.404 98.408 205.821 154.995z" />
<glyph unicode="&#xe913;" glyph-name="inbox" d="M489.739 804.174h44.522v-319.221h-44.522zM626.921 631.181l31.482-31.482-146.402-146.402-146.402 146.402 31.482 31.482 114.921-114.921zM822.498 392.663l-111.25 166.876 37.044 24.696 121.037-181.555-28.998-172.446c-10.321-67.087-68.676-116.146-136.694-116.146h-383.274c-67.455 0-124.546 48.426-136.645 115.84l-29.047 172.752 121.037 181.555 37.044-24.696-111.25-166.876 26.079-155.112c8.271-46.083 47.011-78.942 92.781-78.942h383.274c46.23 0 85.739 33.215 92.739 78.701l26.121 155.354zM178.087 375.41v44.522h249.29l13.112-48.085c8.98-31.43 38.245-53.541 71.511-53.541s62.531 22.111 71.438 53.283l13.184 48.343h249.29v-44.522h-215.285l-4.308-15.794c-14.437-50.529-61.161-85.832-114.319-85.832s-99.882 35.302-114.391 86.090l-4.237 15.536h-215.285z" />
<glyph unicode="&#xe914;" glyph-name="info" d="M512-41.739c-270.475 0-489.739 219.264-489.739 489.739s219.264 489.739 489.739 489.739c270.475 0 489.739-219.264 489.739-489.739s-219.264-489.739-489.739-489.739zM512-0.928c247.936 0 448.928 200.992 448.928 448.928s-200.992 448.928-448.928 448.928c-247.936 0-448.928-200.992-448.928-448.928s200.992-448.928 448.928-448.928zM554.667 652.058c0-23.564-19.103-42.667-42.667-42.667s-42.667 19.103-42.667 42.667c0 23.564 19.103 42.667 42.667 42.667s42.667-19.103 42.667-42.667zM430.377 488.812v40.812h102.029v-306.087h-40.812v265.275z" />
<glyph unicode="&#xe915;" glyph-name="layers" d="M512 421.429l315.772 161.307-315.772 161.307-315.772-161.307 315.772-161.307zM102.438 582.737l409.562 209.219 409.562-209.219-409.562-209.219-409.562 209.219zM864.962 332.261l19.41-37.996-372.372-190.221-372.372 190.221 19.41 37.996 352.962-180.306zM864.962 466.998l19.41-37.996-372.372-190.221-372.372 190.221 19.41 37.996 352.962-180.306z" />
<glyph unicode="&#xe916;" glyph-name="lock" d="M244.87 508.008v-306.813c0-60.23 50.839-109.369 113.923-109.369h306.414c63.084 0 113.923 49.139 113.923 109.369v306.813h-534.261zM665.207 47.304h-306.414c-87.341 0-158.445 68.726-158.445 153.89v351.335h623.304v-351.335c0-85.164-71.105-153.89-158.445-153.89zM364.031 530.268h-44.522v131.629c0 103.338 86.347 186.798 192.491 186.798s192.491-83.46 192.491-186.798v-131.629h-44.522v131.629c0 78.404-66.082 142.276-147.969 142.276s-147.969-63.872-147.969-142.276v-131.629zM512 217.648c-10.457-0.104-19.647 6.677-22.3 16.454l-27.407 88.521c-3.173 14.517 0.579 29.644 10.217 41.193s24.139 18.294 39.49 18.37c15.241-0.105 29.637-6.784 39.254-18.213s13.451-26.412 10.453-40.856l-27.407-89.014c-2.653-9.777-11.844-16.558-22.3-16.454z" />
<glyph unicode="&#xe917;" glyph-name="log" d="M512 310.563c-75.904 0-137.437 61.532-137.437 137.437s61.532 137.437 137.437 137.437c75.904 0 137.437-61.532 137.437-137.437s-61.532-137.437-137.437-137.437zM512 355.085c51.316 0 92.915 41.599 92.915 92.915s-41.599 92.915-92.915 92.915c-51.316 0-92.915-41.599-92.915-92.915s41.599-92.915 92.915-92.915zM826.23 533.385l86.466-6.269v-154.067l-86.679-6.499c-18.343-1.153-34.375-12.746-41.228-29.772-7.277-18.357-4.191-37.567 7.566-51.177l56.781-65.016-109.002-109.228-64.945 56.503c-13.724 11.798-32.931 14.839-49.628 7.86-17.919-7.539-29.008-23.232-30.313-41.107l-6.252-87.308h-153.877l-1.735 20.372-5.786 67.98c-1.248 18.067-12.326 33.956-28.78 41.395-18.206 7.246-37.415 4.161-51.025-7.596l-65.032-56.795-109.061 109.061 56.716 64.942c11.836 13.701 14.921 32.91 7.972 49.628-7.332 17.89-22.867 28.977-40.672 30.277l-86.411 6.481v154.067l86.306 6.257c18.414 1.468 34.321 13.443 41.105 31.437 6.949 16.718 3.864 35.928-7.893 49.538l-56.979 65.244 110.934 108.009 64.733-56.534c13.701-11.836 32.91-14.921 49.827-7.89 16.585 6.707 27.925 22.246 29.254 40.066l6.29 85.454h153.873l7.144-85.731c1.33-17.506 12.434-32.742 28.655-39.382 18.343-7.274 37.552-4.188 51.162 7.569l65.049 56.809 109.524-109.749-56.702-64.926c-11.836-13.701-14.921-32.91-7.972-49.628 7.332-17.89 22.866-28.977 40.616-30.273zM868.174 485.705l-45.176 3.275c-34.825 2.544-65.224 24.546-78.523 56.832-13.287 33.674-7.235 70.354 15.498 96.67l29.436 33.706-50.735 50.839-33.764-29.487c-26.166-22.604-62.738-28.679-94.768-15.823-33.842 13.111-56.004 43.225-58.625 77.713l-3.729 44.744h-71.542l-3.255-44.221c-2.589-34.736-24.67-64.992-56.763-77.97-32.28-13.418-69.369-7.46-95.913 15.471l-33.898 29.604-51.299-49.946 29.317-33.569c22.852-26.453 28.81-63.543 15.672-95.116-12.58-33.437-43.345-56.595-79.117-59.447l-45.164-3.274v-71.349l45.176-3.388c34.825-2.544 65.224-24.546 78.523-56.832 13.287-33.674 7.235-70.354-15.498-96.67l-29.422-33.69 50.211-50.211 33.78 29.501c26.295 22.715 63.098 28.738 95.24 15.632 33.923-14.175 55.756-44.924 58.149-79.621l4.024-47.253h71.538l3.294 45.997c2.546 34.879 24.441 65.381 56.672 78.952 33.676 13.409 70.401 7.452 96.797-15.24l33.677-29.299 50.269 50.373-29.515 33.796c-22.589 26.148-28.67 62.688-15.849 94.703 13.366 34.874 44.579 57.628 80.062 59.857l45.219 3.391v71.349z" />
<glyph unicode="&#xe918;" glyph-name="out" d="M200.348 114.087h327.553c40.307 0 73.143 31.979 73.143 70.654v154.858h44.522v-154.858c0-63.531-53.028-115.176-117.665-115.176h-372.075v756.87h372.075c64.637 0 117.665-51.645 117.665-115.176v-154.858h-44.522v154.858c0 38.675-32.835 70.654-73.143 70.654h-327.553v-667.826zM432.378 424.402l-0.144 44.522 413.607 1.337 0.144-44.522zM695.226 563.682l31.063 31.895 151.53-147.577-151.53-147.577-31.063 31.895 118.781 115.682z" />
<glyph unicode="&#xe919;" glyph-name="papers" d="M311.652 47.304h311.652c110.184 0 200.348 89.38 200.348 198.412v492.643h-512v-691.055zM868.174 782.881v-537.164c0-133.708-110.184-242.934-244.87-242.934h-356.174v780.098h601.043zM437.853 517.686l-0.113 44.522 259.71 0.658 0.113-44.522zM437.832 370.571l-0.070 44.522 259.71 0.406 0.070-44.522zM437.866 223.456l-0.137 44.522 194.783 0.6 0.137-44.522zM200.348 157.641h89.043v-44.522h-133.565v780.098h601.043v-132.597h-44.522v88.076h-512z" />
<glyph unicode="&#xe91a;" glyph-name="pencil" d="M696.8 527.024l-105.776 105.776-362.296-360.679-66.088-173.481 173.481 66.088 360.679 362.296zM351.476 134.581l-246.985-94.090 94.090 246.985 3.851 5.932 388.646 386.911 153.242-153.242-386.911-388.646-5.932-3.851zM792.883 621.478l58.474 58.469c29.071 30.455 29.071 78.887 0.553 107.411-30.455 29.071-78.887 29.071-107.684 0.273l-58.748-58.748 107.405-107.405zM637.906 728.883l82.534 82.534c41.843 41.843 111.147 41.843 154.977 0 41.843-41.843 41.843-111.147 0-154.977l-82.534-82.534-154.977 154.977z" />
<glyph unicode="&#xe91b;" glyph-name="plus" d="M512-21.333c-258.783 0-469.333 210.55-469.333 469.333s210.55 469.333 469.333 469.333c258.783 0 469.333-210.55 469.333-469.333s-210.55-469.333-469.333-469.333zM512 881.231c-238.873 0-433.231-194.358-433.231-433.231s194.358-433.231 433.231-433.231c238.873 0 433.231 194.358 433.231 433.231s-194.358 433.231-433.231 433.231zM746.667 429.949c0 0-216.615 0-216.615 0s0-216.615 0-216.615c0-9.964-8.087-18.051-18.051-18.051s-18.051 8.087-18.051 18.051c0 0 0 216.615 0 216.615s-216.615 0-216.615 0c-9.964 0-18.051 8.087-18.051 18.051s8.087 18.051 18.051 18.051c0 0 216.615 0 216.615 0s0 216.615 0 216.615c0 9.964 8.087 18.051 18.051 18.051s18.051-8.087 18.051-18.051c0 0 0-216.615 0-216.615s216.615 0 216.615 0c9.964 0 18.051-8.087 18.051-18.051s-8.087-18.051-18.051-18.051z" />
<glyph unicode="&#xe91c;" glyph-name="refresh-time" d="M151.931 558.823l-36.732 25.159c12.218 17.875 18.4 26.9 24.746 36.041 110.696 159.479 204.004 228.672 372.055 228.672 221.256 0 400.696-179.439 400.696-400.696s-179.44-400.696-400.696-400.696c-221.256 0-400.696 179.44-400.696 400.696h44.522c0-196.667 159.506-356.174 356.174-356.174s356.174 159.506 356.174 356.174c0 196.667-159.506 356.174-356.174 356.174-150.238 0-232.254-60.82-335.48-209.537-6.255-9.012-12.349-17.906-24.589-35.813zM155.826 593.664h175.183v-44.522h-219.705v219.705h44.522zM506.193 420.9v273.905h44.522v-318.427h-219.705v44.522z" />
<glyph unicode="&#xe91d;" glyph-name="refresh" d="M166.104 568.428l-33.541 26.371c5.458 6.941 31.375 40.437 38.769 49.809 102.25 129.597 190.041 187.391 340.669 187.391 212.077 0 384-171.923 384-384s-171.923-384-384-384c-212.077 0-384 171.923-384 384h42.667c0-188.513 152.82-341.333 341.333-341.333s341.333 152.82 341.333 341.333c0 188.513-152.82 341.333-341.333 341.333-135.054 0-212.21-50.793-307.172-171.153-7.234-9.169-33.121-42.626-38.724-49.752zM170.667 602.947h169.544v-42.667h-212.211v212.211h42.667z" />
<glyph unicode="&#xe91e;" glyph-name="safety" d="M516.52 110.062c9.69 4.1 20.543 9.191 32.264 15.317 33.596 17.559 67.216 39.818 98.536 67.101 88.956 77.491 142.013 179.172 142.013 309.132v236.114l-277.333 51.246-277.333-51.246v-236.114c0-128.577 53.066-229.996 142.061-307.991 31.345-27.471 64.994-49.996 98.618-67.867 11.733-6.236 22.596-11.433 32.297-15.632 1.631-0.706 3.12-1.338 4.458-1.896 1.328 0.54 2.804 1.152 4.42 1.836zM490.691 70.967c-10.716 4.639-22.602 10.326-35.37 17.111-36.376 19.333-72.727 43.668-106.716 73.455-97.672 85.6-156.606 198.233-156.606 340.079v271.619l316.124 58.414h7.753l316.124-58.414v-271.619c0-143.223-58.943-256.186-156.654-341.303-34.014-29.63-70.393-53.715-106.797-72.742-12.778-6.679-24.676-12.259-35.402-16.798-6.563-2.777-11.368-4.619-14.127-5.58l-7.126-2.483-7.102 2.55c-2.75 0.987-7.547 2.875-14.1 5.712zM490.667 668.754h42.667v-220.754h-42.667zM554.667 353.391c0-23.564-19.103-42.667-42.667-42.667s-42.667 19.103-42.667 42.667c0 23.564 19.103 42.667 42.667 42.667s42.667-19.103 42.667-42.667z" />
<glyph unicode="&#xe91f;" glyph-name="sand-timer" d="M673.391 245.095c0 44.479-21.679 85.927-58.944 112.193l-102.447 71.605-102.375-71.554c-37.337-26.317-59.016-67.765-59.016-112.244v-137.165h322.783v137.165zM306.087 63.408v181.687c0 59.015 28.765 114.010 77.96 148.685l127.953 89.432 128.025-89.482c49.123-34.624 77.888-89.619 77.888-148.634v-181.687h-411.826zM350.609 804.174v-137.165c0-44.479 21.679-85.927 58.944-112.193l102.447-71.605 102.375 71.554c37.337 26.317 59.016 67.765 59.016 112.244v137.165h-322.783zM717.913 848.696v-181.687c0-59.015-28.765-114.010-77.96-148.685l-127.953-89.431-128.025 89.482c-49.123 34.624-77.888 89.619-77.888 148.634v181.687h411.826zM244.87 63.408v44.522h534.261v-44.522zM244.87 804.174v44.522h534.261v-44.522zM332.193 176.468l-7.69 43.853 183.652 32.207h7.69l183.652-32.207-7.69-43.853-179.807 31.533z" />
<glyph unicode="&#xe920;" glyph-name="search-book" d="M768 914.873l-559.016-61.126c-22.438-4.488-38.317-23.8-38.317-47.348 0-33.018 26.715-59.733 59.733-59.733h537.6v168.207zM810.667 746.667h85.333v-618.667c0-105.649-86.351-192-192-192h-384c-105.649 0-192 86.351-192 192v682.667c1.986 42.012 31.7 76.733 74.478 85.207l608.189 66.59v-215.797zM170.667 128c0-82.085 67.249-149.333 149.333-149.333h384c82.085 0 149.333 67.249 149.333 149.333v576h-622.933c-22.298 0-42.924 7.115-59.733 19.201v-595.201zM480 256c-76.583 0-138.667 62.083-138.667 138.667s62.083 138.667 138.667 138.667c76.583 0 138.667-62.083 138.667-138.667s-62.083-138.667-138.667-138.667zM480 298.667c53.019 0 96 42.981 96 96s-42.981 96-96 96c-53.019 0-96-42.981-96-96s42.981-96 96-96zM548.115 296.382l30.17 30.17 140.8-140.8-30.17-30.17z" />
<glyph unicode="&#xe921;" glyph-name="search" d="M403.2 281.6c-151.989 0-275.2 123.211-275.2 275.2s123.211 275.2 275.2 275.2c151.989 0 275.2-123.211 275.2-275.2s-123.211-275.2-275.2-275.2zM403.2 324.267c128.425 0 232.533 104.109 232.533 232.533s-104.109 232.533-232.533 232.533c-128.425 0-232.533-104.109-232.533-232.533s104.109-232.533 232.533-232.533zM569.448 360.382l30.17 30.17 290.133-290.133-30.17-30.17z" />
<glyph unicode="&#xe922;" glyph-name="smile" d="M512 64c-212.077 0-384 171.923-384 384s171.923 384 384 384c212.077 0 384-171.923 384-384s-171.923-384-384-384zM512 106.667c188.513 0 341.333 152.82 341.333 341.333s-152.82 341.333-341.333 341.333c-188.513 0-341.333-152.82-341.333-341.333s152.82-341.333 341.333-341.333zM433.159 542.609c0-26.125-21.179-47.304-47.304-47.304s-47.304 21.179-47.304 47.304c0 26.125 21.179 47.304 47.304 47.304s47.304-21.179 47.304-47.304zM685.449 542.609c0-26.125-21.179-47.304-47.304-47.304s-47.304 21.179-47.304 47.304c0 26.125 21.179 47.304 47.304 47.304s47.304-21.179 47.304-47.304zM665.458 376.607l39.982-14.895-3.011-8.081c-29.755-79.39-105.654-131.979-190.422-131.95-84.783-0.030-160.682 52.559-190.452 131.989l-2.996 8.042 39.982 14.895 2.981-8.002c23.51-62.728 83.48-104.28 150.484-104.257 66.989-0.023 126.959 41.529 150.455 104.218l2.996 8.042z" />
<glyph unicode="&#xe923;" glyph-name="squares" d="M200.348 759.652v-222.609h222.609v222.609h-222.609zM467.478 804.174v-311.652h-311.652v311.652h311.652zM200.348 358.957v-222.609h222.609v222.609h-222.609zM467.478 403.478v-311.652h-311.652v311.652h311.652zM601.043 759.652v-222.609h222.609v222.609h-222.609zM868.174 804.174v-311.652h-311.652v311.652h311.652zM601.043 358.957v-222.609h222.609v222.609h-222.609zM868.174 403.478v-311.652h-311.652v311.652h311.652z" />
<glyph unicode="&#xe924;" glyph-name="star" d="M512 719.214l-71.637-224.3-221.341 0.274 177.065-119.882-68.522-214.41 184.436 130.451 184.436-130.451-68.522 214.41 177.065 119.882-221.341-0.274-71.637 224.3zM409.212 537.619l102.788 321.834 102.788-321.834 329.567 0.408-266.079-180.15 97.614-305.44-263.89 186.648-263.89-186.648 97.614 305.44-266.079 180.15 329.567-0.408z" />
<glyph unicode="&#xe925;" glyph-name="target" d="M512 47.304c-221.298 0-400.696 179.398-400.696 400.696s179.398 400.696 400.696 400.696c221.298 0 400.696-179.398 400.696-400.696s-179.398-400.696-400.696-400.696zM512 91.826c196.709 0 356.174 159.464 356.174 356.174s-159.464 356.174-356.174 356.174c-196.709 0-356.174-159.464-356.174-356.174s159.464-356.174 356.174-356.174zM561.361 448c0-27.261-22.1-49.361-49.361-49.361s-49.361 22.1-49.361 49.361c0 27.261 22.1 49.361 49.361 49.361s49.361-22.1 49.361-49.361zM512 211.841c-130.427 0-236.159 105.732-236.159 236.159s105.732 236.159 236.159 236.159c130.427 0 236.159-105.732 236.159-236.159s-105.732-236.159-236.159-236.159zM512 256.363c105.838 0 191.637 85.799 191.637 191.637s-85.799 191.637-191.637 191.637c-105.838 0-191.637-85.799-191.637-191.637s85.799-191.637 191.637-191.637z" />
<glyph unicode="&#xe926;" glyph-name="thumbs-down" d="M270.494 516.638l217.932 321.144 16.526-7.841c94.406-44.793 116.16-141.566 66.115-228.745l-26.2-46.419c-12.713-25.253-4.621-38.634 22.699-38.138h134.946c30.725 0 63.148-7.442 92.466-28.618 43.763-31.609 67.263-86.593 63.793-167.084-5.708-126.389-116.418-256.936-176.422-256.936l-286.845 0.002c-104.711 1.391-192.388 79.33-205.243 181.842l-44.742 270.794h124.974zM769.996 453.432c-20.765 14.998-44.907 20.539-67.484 20.539l-134.556 0.004c-59.447-1.085-88.17 46.41-60.726 100.872l26.753 47.447c35.376 61.626 25.167 124.67-31.397 160.37l-209.482-308.693h-97.291l36.664-221.991c10.315-82.152 80.123-144.206 163.312-145.313h286.561c35 0 129.030 110.876 133.796 216.129 2.877 66.824-14.686 107.911-46.149 130.636z" />
<glyph unicode="&#xe927;" glyph-name="thumbs-up" d="M533.901 273.849l-27.144 48.189c-26.971 53.576 1.751 101.072 60.809 99.99h134.946c22.578 0 46.719 5.541 67.484 20.539 31.466 22.727 49.029 63.821 46.148 130.658-4.521 105.229-98.443 216.107-133.477 216.107l-286.278 0.002c-83.472-1.109-153.28-63.163-163.719-146.161l-36.824-221.145h97.248l209.798-308.7c56.598 35.716 66.724 98.79 31.009 160.52zM794.978 407.98c-29.318-21.176-61.741-28.618-92.466-28.618l-135.335 0.004c-26.931 0.492-35.022-12.889-22.781-37.257l26.554-47.098c50.475-87.238 28.804-184.121-65.68-228.951l-16.515-7.836-218.251 321.139h-125.016l4.136 24.837 40.836 245.136c12.975 103.332 100.652 181.271 205.646 182.664h286.561c60.061 0 170.675-130.583 176.104-256.938 3.47-80.49-20.030-135.473-63.793-167.082z" />
<glyph unicode="&#xe928;" glyph-name="trash" d="M756.898 728.841l44.465-2.256-27.047-533.101c-4.167-82.034-72.791-146.282-155.797-146.18h-213.176c-83.033-0.102-151.658 64.146-155.825 146.188l-26.88 533.099 44.465 2.242 26.88-533.091c2.956-58.196 51.869-103.99 111.333-103.916h213.231c59.436-0.073 108.349 45.721 111.306 103.915l27.047 533.099zM178.087 705.452v44.522h667.826v-44.522zM397.938 595.037l44.473 2.092 17.027-361.981-44.473-2.092zM581.345 597.060l44.479-1.954-15.899-361.981-44.479 1.954zM399.515 720.561l-42.161 14.304 18.182 53.592c12.112 35.964 46.099 60.179 84.373 60.239h104.049c38.24-0.060 72.226-24.275 84.302-60.133l18.365-53.639-42.121-14.422-18.401 53.745c-5.993 17.795-22.979 29.897-42.18 29.927h-103.979c-19.236-0.030-36.222-12.132-42.231-29.974l-18.198-53.639z" />
<glyph unicode="&#xe929;" glyph-name="trophy" d="M732.754 137.532v-30.865h-441.507v30.865zM470.646 216.383c-42.363-71.71-101.537-115.617-179.4-115.617v42.667c60.476 0 107.253 34.709 142.664 94.652 22.42 37.952 36.148 78.544 41.42 104.342l3.487 17.062h66.366l3.487-17.062c5.272-25.798 19-66.39 41.42-104.342 35.411-59.943 82.189-94.652 142.664-94.652v-42.667c-77.863 0-137.037 43.908-179.4 115.617-19.849 33.599-33.467 68.546-41.354 96.552-7.887-28.007-21.505-62.953-41.354-96.552zM268.818 796.631l27.679-169.316c27.157-156.154 110.665-267.825 215.504-267.825 104.697 0 191.709 116.469 215.468 267.612l27.716 169.542-241.958 14.059-244.409-14.071zM512 316.823c-130.734 0-227.261 129.082-257.576 303.395l-35.358 216.286 294.16 16.794 291.708-16.794-35.337-216.157c-26.603-169.238-126.925-303.524-257.596-303.524zM756.406 656.34v42.667h139.594v-21.333c0-200.164-164.18-360.851-368.232-360.851h-15.768v42.667h15.768c173.345 0 313.727 130.498 324.854 296.851h-96.217zM496.232 359.489h15.768v-42.667h-15.768c-204.052 0-368.232 160.687-368.232 360.851v21.333h139.594v-42.667h-96.217c11.127-166.353 151.509-296.851 324.854-296.851z" />
<glyph unicode="&#xe92a;" glyph-name="up-down" d="M345.043 136.348h-44.522v623.304h44.522zM496.353 339.173l31.295-31.667-204.865-202.455-204.865 202.455 31.295 31.667 173.57-171.528zM678.957 759.652h44.522v-623.304h-44.522zM527.647 556.827l-31.295 31.667 204.865 202.455 204.865-202.455-31.295-31.667-173.57 171.528z" />
<glyph unicode="&#xe92b;" glyph-name="users" d="M511.984 573.547c-0.503-3.046-0.503-3.046-1.011-6.061-2.053-12.149-4.102-23.472-5.474-30.784-12.142-64.959-53.603-110.963-112.436-110.963-59.3 0-102.21 47.089-112.451 111.044-1.37 7.484-3.416 19.010-5.466 31.27-0.432 2.594-0.432 2.594-0.862 5.209-3.148 19.216-4.849 31.572-4.824 36.786-3.255 69.419 54.51 127.344 123.603 127.344h4.055c66.678 0 121.093-58.143 119.572-126.607-0.049-6.762-1.714-19.048-4.705-37.237zM472.169 611.090c1.064 44.525-33.754 81.779-75.051 81.779h-4.055c-44.122 0-81.174-37.154-79.106-81.779 0-2.681 1.659-14.74 4.263-30.631 0.417-2.538 0.417-2.538 0.839-5.065 2.005-11.993 4.014-23.314 5.431-31.080 7.173-44.771 33.857-74.053 68.573-74.053 34.255 0 60.080 28.655 68.675 74.636 1.329 7.086 3.335 18.17 5.336 30.010 0.492 2.924 0.492 2.924 0.978 5.865 2.542 15.456 4.116 27.134 4.116 30.318zM615.476 276.502c-1.747 28.171-24.783 47.728-61.908 55.246l-160.493 22.076-158.132-21.91c-32.87-6.106-59.095-28.056-61.617-51.595l-6.184-77.19h452.423l-4.089 73.372zM118.911 158.609l1.926 24.038 8.164 101.815c4.951 46.348 47.375 81.857 98.818 91.389l162.186 22.495 6.092 0.003 164.898-22.725c56.241-11.323 95.722-44.84 98.926-96.506l6.716-120.51h-547.726zM770.462 482.194c-9.009-52.483-44.638-91.604-93.572-91.604s-84.563 39.121-93.417 90.789c-1.21 5.756-3.011 14.631-4.817 24.161-0.445 2.358-0.445 2.358-0.887 4.742-2.754 14.929-4.233 24.7-4.233 30.511 0 58.498 46.258 106.618 103.354 106.618s103.354-48.119 103.354-106.618c0-17.197-3.072-41.714-10.626-58.453l0.844-0.145zM731.826 514.020c2.177 12.541 3.896 24.719 3.896 26.773 0 34.294-26.726 62.096-58.832 62.096s-58.832-27.802-58.832-62.096c0-1.876 1.363-10.88 3.494-22.434 0.421-2.269 0.421-2.269 0.847-4.527 1.742-9.187 3.489-17.799 4.799-24.105 5.679-33.084 25.287-54.615 49.692-54.615s44.013 21.53 49.692 54.615l3.175 18.495h1.037c0.34 1.859 0.687 3.806 1.033 5.799zM853.367 269.209c-1.62 21.905-18.885 36.786-45.459 41.417l-133.804 16.871 5.57 44.172 134.822-17.024c45.917-7.961 79.955-37.299 83.31-82.793l5.103-113.244h-178.715v44.522h132.144l-2.971 66.078z" />
</font>
</defs>
</svg>
